<svg width="280" height="66" viewBox="0 0 280 66" fill="none" xmlns="http://www.w3.org/2000/svg">
<path d="M135.936 50.293C134.451 50.293 133.177 50.0293 132.112 49.502C131.048 48.9648 130.232 48.2275 129.666 47.29C129.109 46.3525 128.831 45.2881 128.831 44.0967C128.831 43.7939 128.846 43.4668 128.875 43.1152C128.904 42.7539 128.948 42.417 129.007 42.1045L131.922 28.584H137.649L134.793 41.958C134.734 42.2412 134.686 42.5293 134.646 42.8223C134.607 43.1152 134.588 43.3887 134.588 43.6426C134.588 44.2285 134.749 44.6875 135.071 45.0195C135.394 45.3418 135.862 45.5029 136.478 45.5029C137.054 45.5029 137.542 45.376 137.942 45.1221C138.353 44.8682 138.699 44.4629 138.982 43.9062C139.275 43.3398 139.52 42.5928 139.715 41.665L142.513 28.584H148.24L145.325 42.2363C144.964 43.9746 144.412 45.4443 143.67 46.6455C142.928 47.8369 141.932 48.7451 140.682 49.3701C139.432 49.9854 137.85 50.293 135.936 50.293ZM153.704 50.293C152.601 50.293 151.614 50.2148 150.745 50.0586C149.886 49.9023 149.134 49.6729 148.489 49.3701V44.8145C149.388 45.3027 150.223 45.6445 150.994 45.8398C151.766 46.0352 152.547 46.1328 153.338 46.1328C153.572 46.1328 153.846 46.1133 154.158 46.0742C154.471 46.0254 154.744 45.9277 154.979 45.7812C155.213 45.6348 155.33 45.4102 155.33 45.1074C155.33 44.8828 155.276 44.6826 155.169 44.5068C155.071 44.3213 154.861 44.1162 154.539 43.8916C154.217 43.6572 153.719 43.3545 153.045 42.9834C152.361 42.6025 151.8 42.1875 151.36 41.7383C150.921 41.2891 150.594 40.791 150.379 40.2441C150.174 39.6875 150.071 39.0576 150.071 38.3545C150.071 37.3096 150.315 36.3965 150.804 35.6152C151.292 34.8242 152.039 34.209 153.045 33.7695C154.061 33.3301 155.34 33.1104 156.883 33.1104C157.967 33.1104 158.963 33.2422 159.871 33.5059C160.779 33.7598 161.653 34.1455 162.493 34.6631L160.721 38.3545C160.174 37.9932 159.549 37.6758 158.846 37.4023C158.152 37.1191 157.518 36.9775 156.941 36.9775C156.6 36.9775 156.326 37.0605 156.121 37.2266C155.926 37.3926 155.828 37.6416 155.828 37.9736C155.828 38.1592 155.892 38.3301 156.019 38.4863C156.155 38.6426 156.37 38.8037 156.663 38.9697C156.956 39.126 157.332 39.3213 157.791 39.5557C158.543 39.9268 159.158 40.3467 159.637 40.8154C160.125 41.2842 160.486 41.8018 160.721 42.3682C160.965 42.9346 161.087 43.5596 161.087 44.2432C161.087 45.6104 160.784 46.7432 160.179 47.6416C159.573 48.5303 158.719 49.1943 157.615 49.6338C156.512 50.0732 155.208 50.293 153.704 50.293Z" fill="white"/>
<path d="M85 59.5C84.7239 59.5 84.5 59.7239 84.5 60C84.5 60.2761 84.7239 60.5 85 60.5L85 59.5ZM115.333 60C115.333 61.4728 116.527 62.6667 118 62.6667C119.473 62.6667 120.667 61.4728 120.667 60C120.667 58.5272 119.473 57.3333 118 57.3333C116.527 57.3333 115.333 58.5272 115.333 60ZM85 60.5L118 60.5L118 59.5L85 59.5L85 60.5Z" fill="#FF0000"/>
<line x1="77" y1="56" x2="109" y2="56" stroke="#FF0000" stroke-width="2" stroke-linecap="round"/>
<path d="M34.6172 50.293C33.2598 50.293 32.1025 50.0439 31.1455 49.5459C30.1982 49.0479 29.4756 48.3252 28.9775 47.3779C28.4795 46.4209 28.2305 45.2637 28.2305 43.9062C28.2305 42.7734 28.3574 41.6797 28.6113 40.625C28.8652 39.5605 29.2461 38.5742 29.7539 37.666C30.2617 36.7578 30.8916 35.9619 31.6436 35.2783C32.3955 34.5947 33.2646 34.0625 34.251 33.6816C35.2471 33.3008 36.3604 33.1104 37.5908 33.1104C38.9482 33.1104 40.1006 33.3594 41.0479 33.8574C42.0049 34.3555 42.7324 35.083 43.2305 36.04C43.7285 36.9873 43.9775 38.1396 43.9775 39.4971C43.9775 40.6299 43.8506 41.7285 43.5967 42.793C43.3428 43.8477 42.9619 44.8291 42.4541 45.7373C41.9463 46.6455 41.3164 47.4414 40.5645 48.125C39.8125 48.8086 38.9385 49.3408 37.9424 49.7217C36.9561 50.1025 35.8477 50.293 34.6172 50.293ZM35.2471 46.0449C35.5791 46.0449 35.8916 45.918 36.1846 45.6641C36.4873 45.4102 36.7607 45.0635 37.0049 44.624C37.249 44.1748 37.459 43.667 37.6348 43.1006C37.8105 42.5244 37.9473 41.9141 38.0449 41.2695C38.1426 40.625 38.1914 39.9756 38.1914 39.3213C38.1914 38.8916 38.1377 38.5352 38.0303 38.252C37.9326 37.959 37.791 37.7393 37.6055 37.5928C37.4199 37.4463 37.1953 37.373 36.9316 37.373C36.5996 37.373 36.2822 37.5 35.9795 37.7539C35.6865 38.0078 35.418 38.3545 35.1738 38.7939C34.9395 39.2334 34.7344 39.7412 34.5586 40.3174C34.3828 40.8838 34.2461 41.4941 34.1484 42.1484C34.0605 42.793 34.0166 43.4424 34.0166 44.0967C34.0166 44.7412 34.124 45.2295 34.3389 45.5615C34.5537 45.8838 34.8564 46.0449 35.2471 46.0449ZM45.5596 50L49.0605 33.4033H53.5869L53.4111 35.7178H53.5283C53.8896 35.0928 54.29 34.5898 54.7295 34.209C55.1689 33.8281 55.6621 33.5498 56.209 33.374C56.7656 33.1982 57.3955 33.1104 58.0986 33.1104C59.1338 33.1104 59.9688 33.3252 60.6035 33.7549C61.248 34.1846 61.7217 34.7559 62.0244 35.4688C62.3271 36.1816 62.4785 36.9678 62.4785 37.8271C62.4785 38.374 62.4443 38.9404 62.376 39.5264C62.3076 40.1025 62.2197 40.6543 62.1123 41.1816L60.252 50H54.583L56.4727 40.9473C56.5312 40.6934 56.5898 40.3711 56.6484 39.9805C56.707 39.5801 56.7363 39.209 56.7363 38.8672C56.7363 38.4473 56.6289 38.1348 56.4141 37.9297C56.1992 37.7148 55.9404 37.6074 55.6377 37.6074C55.2666 37.6074 54.9102 37.7637 54.5684 38.0762C54.2363 38.3789 53.9287 38.8477 53.6455 39.4824C53.3721 40.1074 53.1328 40.9131 52.9277 41.8994L51.2285 50H45.5596ZM64.2217 50L67.7227 33.4033H72.249L72.0732 35.7178H72.1904C72.5518 35.0928 72.9521 34.5898 73.3916 34.209C73.8311 33.8281 74.3242 33.5498 74.8711 33.374C75.4277 33.1982 76.0576 33.1104 76.7607 33.1104C77.7959 33.1104 78.6309 33.3252 79.2656 33.7549C79.9102 34.1846 80.3838 34.7559 80.6865 35.4688C80.9893 36.1816 81.1406 36.9678 81.1406 37.8271C81.1406 38.374 81.1064 38.9404 81.0381 39.5264C80.9697 40.1025 80.8818 40.6543 80.7744 41.1816L78.9141 50H73.2451L75.1348 40.9473C75.1934 40.6934 75.252 40.3711 75.3105 39.9805C75.3691 39.5801 75.3984 39.209 75.3984 38.8672C75.3984 38.4473 75.291 38.1348 75.0762 37.9297C74.8613 37.7148 74.6025 37.6074 74.2998 37.6074C73.9287 37.6074 73.5723 37.7637 73.2305 38.0762C72.8984 38.3789 72.5908 38.8477 72.3076 39.4824C72.0342 40.1074 71.7949 40.9131 71.5898 41.8994L69.8906 50H64.2217ZM90.3398 50.293C88.9434 50.293 87.7568 50.0293 86.7803 49.502C85.8037 48.9746 85.0566 48.2227 84.5391 47.2461C84.0312 46.2598 83.7773 45.0879 83.7773 43.7305C83.7773 42.373 83.9678 41.0596 84.3486 39.79C84.7393 38.5205 85.3252 37.3828 86.1064 36.377C86.8975 35.3711 87.8887 34.5752 89.0801 33.9893C90.2715 33.4033 91.6729 33.1104 93.2842 33.1104C95.1494 33.1104 96.6094 33.5303 97.6641 34.3701C98.7285 35.21 99.2607 36.3281 99.2607 37.7246C99.2607 38.6426 99.085 39.4775 98.7334 40.2295C98.3818 40.9717 97.8398 41.6113 97.1074 42.1484C96.3848 42.6855 95.4619 43.1006 94.3389 43.3936C93.2158 43.6768 91.8828 43.8184 90.3398 43.8184H89.4756C89.4756 43.8574 89.4756 43.8965 89.4756 43.9355C89.4756 43.9648 89.4756 44.0039 89.4756 44.0527C89.4756 44.7949 89.6758 45.3418 90.0762 45.6934C90.4766 46.0449 91.0771 46.2207 91.8779 46.2207C92.7178 46.2207 93.5137 46.0938 94.2656 45.8398C95.0176 45.5859 95.8232 45.2344 96.6826 44.7852V48.7988C95.7939 49.248 94.876 49.6094 93.9287 49.8828C92.9814 50.1562 91.7852 50.293 90.3398 50.293ZM90.0469 40.2734H90.4717C91.3213 40.2734 91.9951 40.1611 92.4932 39.9365C92.9912 39.7119 93.3477 39.4287 93.5625 39.0869C93.7773 38.7451 93.8848 38.4033 93.8848 38.0615C93.8848 37.749 93.7871 37.4854 93.5918 37.2705C93.3965 37.0557 93.084 36.9482 92.6543 36.9482C92.2148 36.9482 91.8096 37.1191 91.4385 37.4609C91.0674 37.8027 90.7598 38.2324 90.5156 38.75C90.2715 39.2578 90.1152 39.7656 90.0469 40.2734ZM107.332 50.293C106.209 50.293 105.179 50.0635 104.241 49.6045C103.304 49.1455 102.552 48.418 101.985 47.4219C101.429 46.4258 101.15 45.127 101.15 43.5254C101.15 42.3535 101.282 41.2451 101.546 40.2002C101.819 39.1553 102.21 38.1982 102.718 37.3291C103.226 36.46 103.841 35.7129 104.563 35.0879C105.296 34.4531 106.121 33.9648 107.039 33.623C107.957 33.2812 108.953 33.1104 110.027 33.1104C111.062 33.1104 112.005 33.208 112.854 33.4033C113.714 33.5986 114.563 33.8916 115.403 34.2822L113.602 38.4863C113.104 38.2617 112.562 38.0615 111.976 37.8857C111.399 37.7002 110.843 37.6074 110.306 37.6074C109.72 37.6074 109.207 37.793 108.768 38.1641C108.338 38.5254 107.981 38.9941 107.698 39.5703C107.415 40.1465 107.2 40.7568 107.054 41.4014C106.917 42.0361 106.849 42.6221 106.849 43.1592C106.849 43.8037 106.922 44.3164 107.068 44.6973C107.215 45.0684 107.425 45.3369 107.698 45.5029C107.972 45.6592 108.299 45.7373 108.68 45.7373C109.383 45.7373 110.062 45.625 110.716 45.4004C111.38 45.1758 112.083 44.8682 112.825 44.4775V48.9746C112.044 49.3945 111.224 49.7217 110.364 49.9561C109.505 50.1807 108.494 50.293 107.332 50.293ZM121.043 50.293C119.598 50.293 118.499 49.9854 117.747 49.3701C117.005 48.7451 116.634 47.7246 116.634 46.3086C116.634 45.9082 116.668 45.4492 116.736 44.9316C116.814 44.4141 116.897 43.9551 116.985 43.5547L118.216 37.666H115.96L116.561 34.8828L119.754 33.5938L121.761 30.0781H125.54L124.822 33.4033H129.041L128.118 37.666H123.885L122.654 43.2764C122.596 43.5596 122.542 43.8477 122.493 44.1406C122.444 44.4238 122.42 44.6484 122.42 44.8145C122.42 45.1465 122.503 45.3857 122.669 45.5322C122.845 45.6689 123.069 45.7373 123.343 45.7373C123.714 45.7373 124.134 45.6738 124.603 45.5469C125.071 45.4102 125.545 45.2441 126.023 45.0488V49.3115C125.408 49.6143 124.69 49.8535 123.87 50.0293C123.06 50.2051 122.117 50.293 121.043 50.293Z" fill="white"/>
<path d="M15.1172 51.4688C12.2578 51.4688 9.89062 50.9141 8.01562 49.8047C6.14062 48.6797 4.74219 47.1172 3.82031 45.1172C2.89844 43.1172 2.4375 40.7891 2.4375 38.1328C2.4375 36.0859 2.65625 34.0234 3.09375 31.9453C3.53125 29.8672 4.21094 27.8906 5.13281 26.0156C6.05469 24.125 7.23438 22.4453 8.67188 20.9766C10.1094 19.4922 11.8203 18.3281 13.8047 17.4844C15.7891 16.625 18.0703 16.1953 20.6484 16.1953C22.9297 16.1953 24.9766 16.4688 26.7891 17.0156C28.6016 17.5469 30.3125 18.2969 31.9219 19.2656L28.4531 26.4141C27 25.5547 25.6641 24.9141 24.4453 24.4922C23.2266 24.0547 21.9609 23.8359 20.6484 23.8359C19.5391 23.8359 18.5156 24.0859 17.5781 24.5859C16.6562 25.0859 15.8281 25.7812 15.0938 26.6719C14.375 27.5625 13.7578 28.5938 13.2422 29.7656C12.7422 30.9219 12.3594 32.1797 12.0938 33.5391C11.8438 34.8828 11.7188 36.2578 11.7188 37.6641C11.7188 39.7422 12.1562 41.3047 13.0312 42.3516C13.9219 43.3828 15.1797 43.8984 16.8047 43.8984C18.1953 43.8984 19.5547 43.7266 20.8828 43.3828C22.2109 43.0391 23.7266 42.5078 25.4297 41.7891V49.3594C23.7578 50.1094 22.0625 50.6484 20.3438 50.9766C18.6406 51.3047 16.8984 51.4688 15.1172 51.4688Z" fill="white"/>
<path d="M73.3333 56C73.3333 57.4728 74.5272 58.6667 76 58.6667C77.4728 58.6667 78.6667 57.4728 78.6667 56C78.6667 54.5272 77.4728 53.3333 76 53.3333C74.5272 53.3333 73.3333 54.5272 73.3333 56ZM108 56.5C108.276 56.5 108.5 56.2761 108.5 56C108.5 55.7239 108.276 55.5 108 55.5L108 56.5ZM76 56.5L108 56.5L108 55.5L76 55.5L76 56.5Z" fill="#FF0000"/>
<line x1="84" y1="60" x2="117" y2="60" stroke="#FF0000" stroke-width="2" stroke-linecap="round"/>
<path d="M122.342 62L123.851 54.8613H125.813C126.263 54.8613 126.65 54.9167 126.976 55.0273C127.301 55.138 127.552 55.3105 127.728 55.5449C127.907 55.7793 127.996 56.0853 127.996 56.4629C127.996 56.7852 127.931 57.0716 127.801 57.3223C127.674 57.5697 127.492 57.7747 127.254 57.9375C127.02 58.097 126.738 58.2093 126.409 58.2744V58.3184C126.738 58.4062 127.005 58.569 127.21 58.8066C127.415 59.041 127.518 59.347 127.518 59.7246C127.518 60.2389 127.396 60.6654 127.151 61.0039C126.91 61.3392 126.58 61.5898 126.16 61.7559C125.743 61.9186 125.268 62 124.734 62H122.342ZM123.704 61.0186H124.798C125.11 61.0186 125.381 60.9697 125.608 60.8721C125.84 60.7744 126.017 60.6296 126.141 60.4375C126.268 60.2454 126.331 60.0094 126.331 59.7295C126.331 59.4333 126.238 59.1956 126.053 59.0166C125.87 58.8376 125.577 58.748 125.174 58.748H124.188L123.704 61.0186ZM124.383 57.8057H125.359C125.636 57.8057 125.882 57.7666 126.097 57.6885C126.315 57.6071 126.486 57.4834 126.609 57.3174C126.736 57.1481 126.8 56.9333 126.8 56.6729C126.8 56.3994 126.712 56.1911 126.536 56.0479C126.364 55.9046 126.087 55.833 125.706 55.833H124.803L124.383 57.8057ZM127.977 64.4023C127.811 64.4023 127.675 64.3926 127.571 64.373C127.464 64.3535 127.366 64.3307 127.278 64.3047V63.3916C127.366 63.4111 127.459 63.4274 127.557 63.4404C127.654 63.4567 127.762 63.4648 127.879 63.4648C128.169 63.4648 128.411 63.377 128.606 63.2012C128.805 63.0286 128.987 62.7894 129.153 62.4834L129.402 62.0293L128.592 56.5947H129.725L130.047 59.2314C130.07 59.4137 130.088 59.609 130.101 59.8174C130.117 60.0257 130.128 60.2275 130.135 60.4229C130.141 60.6149 130.145 60.7777 130.145 60.9111H130.179C130.224 60.8005 130.281 60.6605 130.35 60.4912C130.418 60.3219 130.494 60.1413 130.579 59.9492C130.664 59.7572 130.748 59.5781 130.833 59.4121L132.269 56.5947H133.504L130.13 62.8545C129.944 63.1995 129.744 63.4876 129.529 63.7188C129.318 63.9499 129.085 64.1208 128.831 64.2314C128.577 64.3454 128.292 64.4023 127.977 64.4023ZM135.945 62L137.454 54.8613H139.109C139.832 54.8613 140.389 55.0143 140.779 55.3203C141.17 55.623 141.365 56.0934 141.365 56.7314C141.365 57.096 141.3 57.4215 141.17 57.708C141.043 57.9945 140.854 58.2386 140.604 58.4404C140.353 58.639 140.044 58.7936 139.676 58.9043L140.901 62H139.642L138.616 59.1387H137.703L137.098 62H135.945ZM137.908 58.1719H138.528C138.799 58.1719 139.036 58.141 139.241 58.0791C139.45 58.0173 139.622 57.9294 139.759 57.8154C139.899 57.6982 140.003 57.555 140.071 57.3857C140.143 57.2132 140.179 57.0195 140.179 56.8047C140.179 56.4629 140.081 56.2171 139.886 56.0674C139.69 55.9144 139.391 55.8379 138.987 55.8379H138.406L137.908 58.1719ZM143.416 62.0977C143.058 62.0977 142.737 62.0651 142.454 62C142.174 61.9349 141.925 61.8405 141.707 61.7168V60.6426C141.958 60.776 142.223 60.8883 142.503 60.9795C142.786 61.0674 143.094 61.1113 143.426 61.1113C143.621 61.1113 143.805 61.0918 143.978 61.0527C144.15 61.0104 144.303 60.9453 144.437 60.8574C144.57 60.7695 144.674 60.6589 144.749 60.5254C144.824 60.3887 144.861 60.2275 144.861 60.042C144.861 59.8532 144.822 59.6904 144.744 59.5537C144.666 59.417 144.55 59.2884 144.397 59.168C144.244 59.0443 144.052 58.9108 143.821 58.7676C143.6 58.6243 143.393 58.4665 143.201 58.2939C143.009 58.1214 142.854 57.9212 142.737 57.6934C142.62 57.4622 142.562 57.1888 142.562 56.873C142.562 56.5475 142.62 56.2546 142.737 55.9941C142.858 55.7337 143.025 55.5124 143.24 55.3301C143.458 55.1445 143.712 55.0029 144.002 54.9053C144.295 54.8076 144.612 54.7588 144.954 54.7588C145.325 54.7588 145.659 54.7979 145.955 54.876C146.251 54.9508 146.538 55.0615 146.814 55.208L146.39 56.126C146.172 56.0186 145.94 55.9307 145.696 55.8623C145.455 55.7907 145.208 55.7549 144.954 55.7549C144.785 55.7549 144.627 55.7777 144.48 55.8232C144.337 55.8688 144.212 55.9355 144.104 56.0234C143.997 56.1113 143.912 56.2204 143.851 56.3506C143.792 56.4775 143.763 56.624 143.763 56.79C143.763 56.9788 143.8 57.1383 143.875 57.2686C143.95 57.3988 144.059 57.5192 144.202 57.6299C144.345 57.7373 144.52 57.8545 144.725 57.9814C145.001 58.154 145.239 58.3314 145.438 58.5137C145.636 58.696 145.787 58.8994 145.892 59.124C145.996 59.3486 146.048 59.6139 146.048 59.9199C146.048 60.2878 145.981 60.6084 145.848 60.8818C145.717 61.152 145.532 61.3783 145.291 61.5605C145.053 61.7396 144.775 61.8747 144.456 61.9658C144.137 62.0537 143.79 62.0977 143.416 62.0977ZM150.018 62.0977C149.181 62.0977 148.528 61.8617 148.06 61.3896C147.591 60.9144 147.356 60.2373 147.356 59.3584C147.356 58.8538 147.415 58.3721 147.532 57.9131C147.649 57.4508 147.82 57.0277 148.045 56.6436C148.27 56.2594 148.545 55.9258 148.87 55.6426C149.199 55.3594 149.572 55.1413 149.988 54.9883C150.408 54.832 150.869 54.7539 151.37 54.7539C151.767 54.7539 152.127 54.793 152.449 54.8711C152.775 54.946 153.092 55.0566 153.401 55.2031L152.962 56.1797C152.718 56.056 152.462 55.9551 152.195 55.877C151.928 55.7988 151.64 55.7598 151.331 55.7598C150.901 55.7598 150.516 55.8542 150.174 56.043C149.832 56.2285 149.539 56.484 149.295 56.8096C149.054 57.1351 148.87 57.5094 148.743 57.9326C148.616 58.3558 148.553 58.8034 148.553 59.2754C148.553 59.6465 148.611 59.9688 148.729 60.2422C148.846 60.5156 149.028 60.7272 149.275 60.877C149.523 61.0234 149.837 61.0967 150.218 61.0967C150.433 61.0967 150.626 61.082 150.799 61.0527C150.975 61.0202 151.137 60.9827 151.287 60.9404L151.688 59.1191H150.301L150.516 58.1279H153.035L152.264 61.7168C151.951 61.8275 151.618 61.9186 151.263 61.9902C150.911 62.0618 150.496 62.0977 150.018 62.0977Z" fill="#FF0000"/>
</svg>
